<?xml version="1.0"?><mxGraphModel><root><mxCell id="0" /><mxCell id="1" parent="0" /><mxCell id="edge1" style="rounded=1;html=1;exitX=0.5;exitY=0;entryX=0.22;entryY=1;jettySize=auto;curved=0;endArrow=block;dashed=0;endFill=1;" parent="1" edge="1" source="node1" target="node2"><mxGeometry as="geometry" relative="1" /></mxCell><mxCell id="edge2" style="rounded=1;html=1;exitX=0.396;exitY=0;entryX=0.783;entryY=1;jettySize=auto;curved=0;endArrow=block;dashed=0;endFill=1;" parent="1" edge="1" source="node3" target="node2"><mxGeometry as="geometry" relative="1" /></mxCell><mxCell id="node1" value="&lt;p style='margin:0px;text-align:center;margin-top:4px;;font-size:10.0px;font-family:Times New Roman,serif;color:#000000;'&gt;device_tab.ActionContainerModel&lt;/p&gt;&lt;hr size='1'/&gt;&lt;p style='margin:0px;text-align:start;margin-left:4px;;font-size:10.0px;font-family:Times New Roman,serif;color:#000000;'&gt;_containers&lt;/p&gt;&lt;hr size='1'/&gt;&lt;p style='margin:0px;text-align:start;margin-left:4px;;font-size:10.0px;font-family:Times New Roman,serif;color:#000000;'&gt;__init__(containers, parent)&lt;br/&gt;add_container(container)&lt;br/&gt;data(index)&lt;br/&gt;remove_container(container)&lt;br/&gt;rows()&lt;/p&gt;" style="verticalAlign=top;align=left;overflow=fill;html=1;rounded=0;shadow=0;comic=0;labelBackgroundColor=none;strokeColor=black;strokeWidth=1;fillColor=#ffffff;" parent="1" vertex="1"><mxGeometry x="4.0" y="569.5" width="210.0" height="141.60000000000002" as="geometry" /></mxCell><mxCell id="node2" value="&lt;p style='margin:0px;text-align:center;margin-top:4px;;font-size:10.0px;font-family:Times New Roman,serif;color:#000000;'&gt;device_tab.InputItemConfiguration&lt;/p&gt;&lt;hr size='1'/&gt;&lt;p style='margin:0px;text-align:start;margin-left:4px;;font-size:10.0px;font-family:Times New Roman,serif;color:#000000;'&gt;action_layout&lt;br/&gt;action_model&lt;br/&gt;action_selector&lt;br/&gt;action_view&lt;br/&gt;always_execute&lt;br/&gt;button_layout&lt;br/&gt;container_selector&lt;br/&gt;description_changed&lt;br/&gt;description_field&lt;br/&gt;description_layout&lt;br/&gt;item_data&lt;br/&gt;main_layout&lt;br/&gt;widget_layout&lt;/p&gt;&lt;hr size='1'/&gt;&lt;p style='margin:0px;text-align:start;margin-left:4px;;font-size:10.0px;font-family:Times New Roman,serif;color:#000000;'&gt;__init__(item_data, parent)&lt;br/&gt;_add_action(action_name)&lt;br/&gt;_add_container(container_name)&lt;br/&gt;_always_execute_cb(state)&lt;br/&gt;_create_description()&lt;br/&gt;_create_dropdowns()&lt;br/&gt;_create_vjoy_dropdowns()&lt;br/&gt;_edit_description_cb(text)&lt;br/&gt;_remove_container(container)&lt;br/&gt;_valid_action_names()&lt;/p&gt;" style="verticalAlign=top;align=left;overflow=fill;html=1;rounded=0;shadow=0;comic=0;labelBackgroundColor=none;strokeColor=black;strokeWidth=1;fillColor=#ffffff;" parent="1" vertex="1"><mxGeometry x="114.06" y="4.5" width="213.88" height="427.20000000000005" as="geometry" /></mxCell><mxCell id="node3" value="&lt;p style='margin:0px;text-align:center;margin-top:4px;;font-size:10.0px;font-family:Times New Roman,serif;color:#000000;'&gt;device_tab.ActionContainerView&lt;/p&gt;&lt;hr size='1'/&gt;&lt;p style='margin:0px;text-align:start;margin-left:4px;;font-size:10.0px;font-family:Times New Roman,serif;color:#000000;'&gt;main_layout&lt;br/&gt;scroll_area&lt;br/&gt;scroll_layout&lt;br/&gt;scroll_widget&lt;/p&gt;&lt;hr size='1'/&gt;&lt;p style='margin:0px;text-align:start;margin-left:4px;;font-size:10.0px;font-family:Times New Roman,serif;color:#000000;'&gt;__init__(parent)&lt;br/&gt;_create_closed_cb(widget)&lt;br/&gt;redraw()&lt;/p&gt;" style="verticalAlign=top;align=left;overflow=fill;html=1;rounded=0;shadow=0;comic=0;labelBackgroundColor=none;strokeColor=black;strokeWidth=1;fillColor=#ffffff;" parent="1" vertex="1"><mxGeometry x="232.11" y="561.1" width="203.76999999999998" height="158.39999999999998" as="geometry" /></mxCell><mxCell id="node4" value="&lt;p style='margin:0px;text-align:center;margin-top:4px;;font-size:10.0px;font-family:Times New Roman,serif;color:#000000;'&gt;device_tab.JoystickDeviceTabWidget&lt;/p&gt;&lt;hr size='1'/&gt;&lt;p style='margin:0px;text-align:start;margin-left:4px;;font-size:10.0px;font-family:Times New Roman,serif;color:#000000;'&gt;current_mode&lt;br/&gt;device&lt;br/&gt;device_profile&lt;br/&gt;input_item_list_model&lt;br/&gt;input_item_list_view&lt;br/&gt;left_panel_layout&lt;br/&gt;main_layout&lt;/p&gt;&lt;hr size='1'/&gt;&lt;p style='margin:0px;text-align:start;margin-left:4px;;font-size:10.0px;font-family:Times New Roman,serif;color:#000000;'&gt;__init__(device, device_profile, current_mode, parent)&lt;br/&gt;_create_change_cb(index)&lt;br/&gt;input_item_selected_cb(index)&lt;br/&gt;mode_changed_cb(mode)&lt;br/&gt;refresh()&lt;br/&gt;update_device_label(text)&lt;/p&gt;" style="verticalAlign=top;align=left;overflow=fill;html=1;rounded=0;shadow=0;comic=0;labelBackgroundColor=none;strokeColor=black;strokeWidth=1;fillColor=#ffffff;" parent="1" vertex="1"><mxGeometry x="453.45" y="510.70000000000005" width="323.09999999999997" height="259.19999999999993" as="geometry" /></mxCell><mxCell id="node5" value="&lt;p style='margin:0px;text-align:center;margin-top:4px;;font-size:10.0px;font-family:Times New Roman,serif;color:#000000;'&gt;device_tab.KeyboardDeviceTabWidget&lt;/p&gt;&lt;hr size='1'/&gt;&lt;p style='margin:0px;text-align:start;margin-left:4px;;font-size:10.0px;font-family:Times New Roman,serif;color:#000000;'&gt;button_press_dialog&lt;br/&gt;current_mode&lt;br/&gt;device_profile&lt;br/&gt;input_item_list_model&lt;br/&gt;input_item_list_view&lt;br/&gt;left_panel_layout&lt;br/&gt;main_layout&lt;br/&gt;widget_storage : dict&lt;/p&gt;&lt;hr size='1'/&gt;&lt;p style='margin:0px;text-align:start;margin-left:4px;;font-size:10.0px;font-family:Times New Roman,serif;color:#000000;'&gt;__init__(device_profile, current_mode, parent)&lt;br/&gt;_add_keyboard_key_cb(key)&lt;br/&gt;_create_change_cb(index)&lt;br/&gt;_index_for_key(key)&lt;br/&gt;_record_keyboard_key_cb()&lt;br/&gt;input_item_selected_cb(index)&lt;br/&gt;mode_changed_cb(mode)&lt;br/&gt;refresh()&lt;/p&gt;" style="verticalAlign=top;align=left;overflow=fill;html=1;rounded=0;shadow=0;comic=0;labelBackgroundColor=none;strokeColor=black;strokeWidth=1;fillColor=#ffffff;" parent="1" vertex="1"><mxGeometry x="794.22" y="485.5" width="279.55999999999995" height="309.6" as="geometry" /></mxCell></root></mxGraphModel>